<?xml version="1.0" encoding="UTF-8" standalone="no"?>
<!-- Generated by IcoMoon.io -->

<svg
   xmlns:dc="http://purl.org/dc/elements/1.1/"
   xmlns:cc="http://creativecommons.org/ns#"
   xmlns:rdf="http://www.w3.org/1999/02/22-rdf-syntax-ns#"
   xmlns:svg="http://www.w3.org/2000/svg"
   xmlns="http://www.w3.org/2000/svg"
   xmlns:sodipodi="http://sodipodi.sourceforge.net/DTD/sodipodi-0.dtd"
   xmlns:inkscape="http://www.inkscape.org/namespaces/inkscape"
   version="1.1"
   width="971.93036"
   height="1007.2032"
   viewBox="0 0 971.93036 1007.2032"
   id="svg3336"
   inkscape:version="0.91 r13725"
   sodipodi:docname="dice.svg">
  <metadata
     id="metadata3349">
    <rdf:RDF>
      <cc:Work
         rdf:about="">
        <dc:format>image/svg+xml</dc:format>
        <dc:type
           rdf:resource="http://purl.org/dc/dcmitype/StillImage" />
        <dc:title></dc:title>
      </cc:Work>
    </rdf:RDF>
  </metadata>
  <defs
     id="defs3347" />
  <sodipodi:namedview
     pagecolor="#ffffff"
     bordercolor="#666666"
     borderopacity="1"
     objecttolerance="10"
     gridtolerance="10"
     guidetolerance="10"
     inkscape:pageopacity="0"
     inkscape:pageshadow="2"
     inkscape:window-width="1366"
     inkscape:window-height="715"
     id="namedview3345"
     showgrid="false"
     inkscape:zoom="0.22627417"
     inkscape:cx="1527.875"
     inkscape:cy="538.35513"
     inkscape:window-x="-8"
     inkscape:window-y="-8"
     inkscape:window-maximized="1"
     inkscape:current-layer="svg3336"
     fit-margin-top="0"
     fit-margin-left="0"
     fit-margin-right="0"
     fit-margin-bottom="0" />
  <g
     id="icomoon-ignore"
     transform="translate(-27.6,-8.7968031)" />
  <path
     d="M 252.4,76.003197 C 135.6,118.4032 37.2,155.2032 32.4,160.0032 c -4.8,4.8 -3.2,11.2 4,18.4 11.2,9.6 438.4,188.8 451.2,188.8 11.2,0 441.6,-178.4 450.4,-187.2 5.6,-4.8 7.2,-12.8 4,-18.4 -8,-12.8 -431.2,-162.40000309 -457.6,-161.60000309 -11.2,0 -115.2,34.40000009 -232,76.00000009 z M 538.8,136.0032 c 53.6,18.4 32,60 -35.2,68 -68.8,8.8 -125.6,-29.6 -88.8,-59.2 21.6,-17.6 85.6,-22.4 124,-8.8 z"
     id="path3339"
     inkscape:connector-curvature="0" />
  <path
     d="m 2,236.0032 c -3.2,3.2 -1.6,121.6 -1.6,263.2 0,256.8 -4,257.6 14.4,273.6 24,21.6 425.2,234.4 442,234.4 12.8,0 7.6,-23.2 7.6,-283.2 0,-258.4 4.4,-284.8 -7.6,-298.4 -8,-8.8 -108.4,-54.4 -220.4,-100.8 -248,-103.2 -228,-95.2 -234.4,-88.8 z m 368.8,203.2 c 43.2,26.4 62.4,90.4 36.8,126.4 -15.2,22.4 -42.4,22.4 -70.4,0.8 -44,-34.4 -58.4,-97.6 -28.8,-127.2 20,-20 45.51379,-12.04311 62.4,0 z m -120,116 c 44.8,50.4 39.2,124 -9.6,124 -28.8,0 -67.2,-36.8 -76.8,-72 -20,-74.4 36.8,-108.8 86.4,-52 z m -127.2,96 c 8.06466,9.13851 24.8,36 24.8,64 0,88.8 -99.2,60.8 -109.6,-31.2 -2.947702,-20.65547 5.6,-60.8 37.6,-60.8 15.2,0 29.6,8.8 47.2,28 z"
     id="path3341"
     inkscape:connector-curvature="0"
     sodipodi:nodetypes="sscssccscccsccscccscsc" />
  <path
     d="m 744.4,323.2032 c -118.4,49.6 -222,96.8 -227.6,104.8 -8,11.2 -4.4,78.4 -4.4,296.8 0,256 -4.4,282.4 6.8,282.4 18.4,0 431.6,-220.8 448.4,-239.2 5.4359,-4.36044 4.8,-41.6 3.2,-272.8 -1.6,-164 2.4,-259.2 -2.4,-260.8 -4,-1.6 -104.8,38.4 -224,88.8 z m -16,167.2 c 39.2,60 -55.2,168.8 -103.2,120 -7.2,-6.4 -12.8,-22.4 -12.8,-35.2 0,-77.6 82.4,-136.8 116,-84.8 z m 151.2,110.4 c 42.4,60 -44.8,171.2 -94.4,121.6 -26.4,-25.6 -9.6,-89.6 32,-122.4 27.2,-21.6 51.88864,-13.16044 62.4,0.8 z"
     id="path3343"
     inkscape:connector-curvature="0"
     sodipodi:nodetypes="ccssccccccsccccc" />
</svg>
