<?xml version="1.0" encoding="UTF-8" standalone="no"?>
<svg
   version="1.1"
   id="svg2"
   viewBox="0 0 288.89389 288.82483"
   height="288.82483"
   width="288.89389"
   sodipodi:docname="dotalogo.svg"
   xmlns:inkscape="http://www.inkscape.org/namespaces/inkscape"
   xmlns:sodipodi="http://sodipodi.sourceforge.net/DTD/sodipodi-0.dtd"
   xmlns="http://www.w3.org/2000/svg"
   xmlns:svg="http://www.w3.org/2000/svg"
   xmlns:rdf="http://www.w3.org/1999/02/22-rdf-syntax-ns#"
   xmlns:cc="http://creativecommons.org/ns#"
   xmlns:dc="http://purl.org/dc/elements/1.1/">
  <sodipodi:namedview
     id="namedview1"
     pagecolor="#ffffff"
     bordercolor="#999999"
     borderopacity="1"
     inkscape:showpageshadow="2"
     inkscape:pageopacity="0"
     inkscape:pagecheckerboard="0"
     inkscape:deskcolor="#d1d1d1"
     showgrid="false" />
  <defs
     id="defs4" />
  <metadata
     id="metadata7">
    <rdf:RDF>
      <cc:Work
         rdf:about="">
        <dc:format>image/svg+xml</dc:format>
        <dc:type
           rdf:resource="http://purl.org/dc/dcmitype/StillImage" />
        <dc:title />
      </cc:Work>
    </rdf:RDF>
  </metadata>
  <g
     id="layer1"
     transform="translate(8.0649414e-4,2.0816699e-4)">
    <path
       d="m 145.39453,0 c -5.04535,-0.00729 -10.94272,0.17740063 -9.49219,0.37695312 0.83119,0.11435002 0.12067,0.23144251 -2.31445,0.3828125 C 126.55043,1.1972156 117.67162,2.6193369 109.65234,4.5917969 62.117658,16.283677 23.348482,52.117614 7.7578125,98.771484 4.1532625,109.55783 1.5282988,122.48122 0.85546875,132.74805 c -0.1101,1.68006 -0.29116375,2.79351 -0.40234375,2.47656 -0.11118,-0.31695 -0.28526561,1.61393 -0.38476563,4.28906 -0.19925999,5.35756 0.06380563,14.92669 0.38476563,14.01172 0.11163,-0.31824 0.2982025,0.90159 0.4140625,2.71094 0.44606,6.96642 2.0169819,16.31786 4.1074219,24.4414 4.58606,17.82155 13.0440176,35.3743 24.2109376,50.2461 11.77165,15.67715 27.682811,29.62841 44.681641,39.17969 17.554569,9.86354 39.615572,16.64088 58.201172,17.8789 1.52082,0.10131 2.69678,0.29451 2.61328,0.42969 -0.0835,0.13517 1.43955,0.29723 3.38477,0.36133 1.94521,0.0644 5.34625,0.0684 7.55859,0.01 2.21234,-0.0588 5.08893,-0.10547 6.39258,-0.10547 1.30365,0 2.29969,-0.11538 2.21289,-0.25585 -0.0868,-0.14049 1.0866,-0.33815 2.60742,-0.43946 9.36662,-0.62393 21.56915,-3.07979 31.84375,-6.4082 17.8532,-5.78348 33.77096,-14.57101 48.32031,-26.67578 4.80138,-3.99466 13.73279,-12.89089 17.58985,-17.52149 15.62822,-18.76249 26.05845,-40.12597 30.86328,-63.21289 1.12705,-5.41539 2.32033,-13.67965 2.58789,-17.92773 0.11396,-1.80935 0.29938,-3.02642 0.41211,-2.70508 0.30837,0.87898 0.5641,-8.95505 0.37109,-14.24609 -0.0931,-2.55301 -0.25934,-4.38108 -0.37109,-4.0625 -0.11209,0.31955 -0.29386,-0.78938 -0.4043,-2.47461 C 286.79959,113.65556 280.27735,92.083409 270.39453,74.349609 246.82407,32.054599 203.37431,4.3000813 155.10352,0.70703125 c -1.815,-0.1351 -2.76157,-0.28995 -2.10157,-0.34375 0.66,-0.0538 -0.75593,-0.18165625 -3.14843,-0.28515625 C 148.66486,0.0267025 147.07632,0.00243 145.39453,0 Z M 75.599609,68.794922 c 1.000339,0.004 1.557847,0.174344 2.595703,0.660156 0.884652,0.41409 2.377983,1.414948 3.320313,2.22461 0.94234,0.809659 2.561949,1.954048 3.599609,2.542968 1.03767,0.58893 4.619352,2.78516 7.957032,4.88086 5.89913,3.70401 6.077523,3.845316 6.402343,5.066406 0.668151,2.51183 2.198951,3.812684 6.578121,5.583984 1.62684,0.65803 2.5416,1.24662 3.30079,2.125 0.84617,0.979 1.60171,1.420577 3.89843,2.279297 1.5675,0.58606 3.12118,1.307836 3.45117,1.603516 0.57481,0.51502 1.46757,1.124839 8.54883,5.828121 6.45324,4.28616 31.89686,21.85637 34.2793,23.67188 1.35935,1.03588 3.96246,2.71382 5.78516,3.72851 1.8227,1.01468 4.38887,2.61576 5.70117,3.5586 1.3123,0.94283 4.40976,3.06686 6.88476,4.71875 2.475,1.65189 5.44461,3.73898 6.59961,4.63867 3.38287,2.63511 13.96566,9.73524 16.10743,10.80664 1.17053,0.58556 3.04873,1.97441 4.63085,3.42383 3.81265,3.49286 4.82819,4.08961 8.25977,4.85937 0.4385,0.0984 1.58678,0.83152 2.55078,1.63086 0.96399,0.79934 2.55031,1.95949 3.52539,2.57813 0.97509,0.61864 3.67509,2.57766 6,4.35156 2.32492,1.7739 4.8686,3.5963 5.65235,4.05078 1.28997,0.74804 1.42482,0.93124 1.42382,1.92383 -0.002,1.76871 -0.81933,6.30336 -1.65625,9.19141 -0.4267,1.47243 -1.56749,5.58547 -2.53515,9.14062 -2.25964,8.30187 -3.09514,10.56389 -6.29688,17.04102 -2.61312,5.28636 -3.37117,6.37511 -4.81054,6.91211 -1.92264,0.71728 -4.52602,0.65174 -15.75,-0.40235 -5.92926,-0.55684 -9.38983,-1.15767 -11.16407,-1.9375 -1.5115,-0.66434 -4.07326,-3.18802 -8.98242,-8.84961 -2.00299,-2.31 -4.34663,-4.87422 -5.20898,-5.69922 -3.03043,-2.89914 -14.85514,-16.10111 -15.80274,-17.64257 -1.59023,-2.58683 -1.86084,-2.87954 -4.24609,-4.63672 -2.68551,-1.97838 -4.92983,-4.23148 -12.82617,-12.86719 -3.1913,-3.4901 -6.84674,-7.27049 -8.12305,-8.40039 -1.2763,-1.1299 -3.13755,-2.92397 -4.13477,-3.98633 -5.00445,-5.33139 -10.92701,-11.74729 -14.5625,-15.77734 -2.22741,-2.46915 -8.64708,-9.07946 -14.26562,-14.68946 -5.618542,-5.61 -10.95055,-11.16682 -11.84961,-12.34765 C 89.53844,109.39925 85.022344,104.53481 80.402344,99.771484 63.037624,81.868024 59.09469,77.647447 58.53125,76.367188 c -0.30468,-0.692381 -0.487597,-1.435134 -0.404297,-1.652344 0.08335,-0.21722 1.092368,-0.616869 2.242188,-0.886719 2.21611,-0.52009 3.732829,-1.110163 8.755859,-3.414063 2.55944,-1.173929 3.515649,-1.458205 5.292969,-1.572265 0.466437,-0.02993 0.848194,-0.04819 1.18164,-0.04687 z m 124.695311,1.482422 c 0.96621,0 6.2642,2.826448 10.21094,5.449218 2.0688,1.3748 4.18441,2.730639 4.70312,3.011719 L 216.15234,79.25 v 4.226562 c 0,4.658241 -0.30463,6.551181 -1.95703,12.150391 -1.00335,3.3999 -1.28739,5.229827 -1.90429,12.238277 -0.215,2.4426 -0.37634,3.0639 -0.95118,3.67579 -1.31615,1.40097 -4.18385,0.80631 -6.4375,-1.33399 -0.66,-0.6268 -3.75185,-2.86186 -6.87109,-4.9668 -3.11923,-2.10494 -6.49423,-4.52199 -7.5,-5.373042 -1.00576,-0.851051 -3.31391,-2.578158 -5.12891,-3.835938 -1.815,-1.25779 -4.71671,-3.533194 -6.44922,-5.058594 -1.73249,-1.5254 -3.89328,-3.249388 -4.80078,-3.830078 -0.9075,-0.58069 -2.26826,-1.608736 -3.02539,-2.285156 -0.75713,-0.67642 -2.08243,-1.818689 -2.94336,-2.53711 -1.26384,-1.05464 -1.54685,-1.457313 -1.47265,-2.095703 0.09,-0.77385 0.2991,-0.84594 9.84179,-3.40039 5.3625,-1.43547 12.04461,-3.181256 14.84961,-3.878907 2.805,-0.697659 5.8261,-1.58391 6.71289,-1.96875 0.88678,-0.384838 1.86722,-0.699218 2.17969,-0.699218 z M 75.746094,166.37109 c 0.162198,-0.004 0.358134,0.0703 0.646484,0.22266 0.3905,0.20631 6.312656,5.93098 13.160156,12.72266 6.8475,6.79167 16.499216,16.06535 21.449216,20.60742 4.95,4.54207 9.18372,8.59877 9.40625,9.01562 0.76574,1.43446 0.42542,1.75658 -3.10547,2.94336 -1.815,0.61005 -4.1096,1.53536 -5.09961,2.05469 -0.98999,0.51934 -2.88117,1.15525 -4.20117,1.41406 -4.99192,0.97876 -6.31601,1.35823 -8.921872,2.5586 -1.47412,0.67904 -3.377024,1.42172 -4.228516,1.64843 -1.098198,0.2924 -3.554648,0.41307 -8.449218,0.41407 l -6.900391,0.002 -1.648437,-1.24609 c -0.9075,-0.68535 -2.904297,-2.42898 -4.435547,-3.875 -1.53126,-1.44601 -3.507188,-3.03743 -4.392578,-3.53711 -0.88539,-0.49969 -1.887733,-1.29954 -2.226563,-1.77539 -0.33883,-0.47584 -1.442555,-1.30513 -2.453125,-1.84375 -2.51011,-1.33788 -2.991187,-2.19751 -2.992187,-5.35352 -0.0012,-2.73277 0.108803,-3.10422 2.845703,-9.66602 0.92908,-2.2275 2.639611,-6.34539 3.800781,-9.15039 4.59045,-11.08893 6.935491,-16.51819 7.300781,-16.90429 0.155345,-0.16421 0.283114,-0.24762 0.445313,-0.25196 z"
       style="fill:#000000"
       id="path3347" />
  </g>
</svg>
