<svg version="1" xmlns="http://www.w3.org/2000/svg" width="1285.333" height="1285.333" viewBox="0 0 964.000000 964.000000"><path d="M455.8.5c-.2.1-4.8.6-10.3.9-5.5.4-11.3.9-13 1.1-1.6.2-5.2.6-8 1-39.3 4.4-84.4 15.9-123 31.5-11.6 4.6-46.1 21.1-54 25.8-1.6.9-5.7 3.3-9 5.1-3.3 1.9-7.1 4.2-8.5 5.2-1.4.9-7.7 5-14.1 9.2-10 6.5-34.9 24.6-38.5 28.1-.6.6-6.3 5.5-12.5 10.8-13.8 11.8-36.1 34.3-49 49.3-18.1 21.2-39.4 51.2-50.7 71.4-1.4 2.5-3.6 6.4-4.9 8.6-6.4 10.9-19.2 38-25.8 54.5-10.5 26.4-19 54.6-25 83-.1.3-.5 2.7-1 5.5-.4 2.7-.9 5.6-1.1 6.3-.1.8-.8 4.6-1.4 8.5-.6 4-1.3 8.3-1.6 9.7-.2 1.4-.6 5.4-.9 9-.4 3.6-.8 7.2-1 8-2.6 9.8-2.6 85.9 0 98.5.3 1.1.7 4.5 1 7.5.9 9.3 1.4 13 4 27.5 3.2 18.2 2.7 15.9 7.4 34.1 10.8 42.7 28.5 86.3 49.8 122.4 4.3 7.4 8.6 14.6 9.4 16 .7 1.4 1.6 2.7 1.9 3 .3.3 4 5.7 8.2 12 16.6 24.6 33.4 44.7 57.7 69 32.3 32.3 65.1 57.3 104.6 79.8 9.9 5.6 43.2 21.5 54.8 26.1 42.2 16.9 83.6 27.2 130.2 32.6 23.1 2.6 86.4 2.7 100.3 0 .9-.1 4.4-.6 7.7-.9 3.3-.4 7.1-.9 8.5-1.1 1.4-.2 4.5-.7 7-1 4.4-.6 27.5-4.9 31.5-5.8 49.4-11.7 92.4-28.1 131-50.2 5.5-3.2 11.6-6.6 13.5-7.7 3.7-2.1 17.8-11.2 19.5-12.5.6-.4 3.9-2.8 7.5-5.2 9.8-6.7 26.3-19.5 37.5-29 14.4-12.3 43.5-41.5 54-54.2 1.1-1.4 4.1-4.9 6.6-7.9 27.8-33.1 56.9-82.9 74.2-127 8.8-22.3 19-55 21.2-67.9.3-1.9.8-3.7 1-4 .2-.4.6-2.6 1-5.1.4-2.5.8-4.7 1-5 .4-.6 3.1-16 4-22.5.3-2.2.7-5.4 1-7 1.3-8.3 1.9-13.7 3.2-29.5 1.5-18.1.8-65.9-1.2-85-.2-1.9-.6-5.5-.9-8-1-9.6-4.1-28.5-7-43.6-1.5-7.4-9.1-36-12.6-46.9-10.5-32.9-27.5-70.2-45.9-101-8.2-13.8-35-52.1-38.2-54.5-.3-.3-3-3.4-6-7-9.4-11.4-11.1-13.2-28.4-30.5-9.3-9.4-21.5-20.9-27-25.6-12.2-10.4-37-29.2-46.4-35.2-1.9-1.2-4.5-2.9-5.7-3.7-2.4-1.6-21.8-13.3-26.9-16.2-4.1-2.4-35.9-18.1-41.7-20.7-2.6-1.1-8.9-3.7-14-5.7s-10.2-4-11.3-4.5c-3.2-1.4-29-9.9-35.3-11.5-3.1-.9-6.4-1.7-7.2-2-3.1-.8-21.6-5.3-24-5.8-1.4-.3-3.6-.7-5-1.1-3.8-.8-24.9-4.3-30.5-5.1-2.7-.3-5.8-.8-6.8-1-1-.2-5.5-.6-10-1-4.5-.3-9.3-.8-10.7-1.1-3-.5-63.7-1.3-64.2-.8zM259.2 233c3.7 1.5 9.1 5.3 12.8 9 2.8 2.8 4.2 3.7 11.5 7.6 2.8 1.4 5.7 3.2 6.5 3.9 2.5 2.1 18.1 11.5 19.1 11.5.5 0 .9.3.9.7 0 .5 4.3 3.3 9.5 6.3 8.6 5 10.4 6.8 11.1 11 .9 5 6.2 10.6 13.3 14.2 2.5 1.3 4.8 2.6 4.9 3 .2.5 1.1.8 2 .8 3.4.1 10 3.9 13.6 7.8 2.9 3.1 5.8 4.8 12.7 7.3 4.9 1.9 10.2 4.4 11.7 5.6 1.5 1.2 3.2 2.7 3.9 3.3.7.5 1.7 1 2.2 1 .5 0 1.6.6 2.3 1.2a34 34 0 0 0 3 2.3c.9.5 5.5 3.6 10.2 6.8 4.7 3.2 8.8 5.8 9.2 5.7.4-.1 1 .2 1.3.7.5.8 8.8 6.6 29.1 20.4 3 2.1 11.1 7.7 18 12.4 6.9 4.8 15.3 10.5 18.8 12.7 3.4 2.3 6.2 4.5 6.2 5 0 .4.6.8 1.3.8.7 0 2.4.9 3.7 2 1.4 1 8.8 6.2 16.5 11.5 7.7 5.4 14.2 10 14.5 10.4 1.4 1.8 10.2 7.8 15 10.3 1.4.7 2.7 1.5 3 1.9.3.3 2 1.2 3.8 2 1.7.8 3.2 1.7 3.2 2.1 0 .5.4.8 1 .8 1.3 0 11.4 6.2 11.8 7.2.2.4 1 .8 1.8.8s1.4.4 1.4.8 1.5 1.6 3.3 2.7c1.7 1 3.4 2.1 3.7 2.5.5.6 14.3 9.9 23.5 15.9 2.2 1.4 4.6 3.2 5.3 3.8.7.7 1.6 1.3 2 1.3.4 0 2.5 1.6 4.7 3.6 3.5 3 11.3 8.6 16.6 11.9 4.5 2.7 14.4 10 14.7 10.7.2.4.8.8 1.4.8.6 0 2.6 1.1 4.4 2.5 1.8 1.4 3.5 2.5 3.9 2.5.3 0 1.6.9 2.7 2 1.2 1.1 5.4 3.6 9.2 5.6 8.6 4.4 11.8 6.7 22 16.1 8.2 7.6 15.4 11.8 22 12.8 3.9.5 8.2 3.2 13.1 8.1 1.3 1.3 2.7 2.4 3 2.4 1.2 0 16 10.4 26.9 18.9 11.2 8.7 17.8 13.2 20.7 14.3 1.3.5 1.4 1.6.8 7-1.9 15.7-2.3 17.8-4.6 25.8-2 6.7-1.5 5-5.7 20.3-1.9 7.1-4 14.3-4.6 16.1-1 3.1-1.4 4.9-2.6 10.5-.3 1.3-1.1 3.9-1.9 5.7-.8 1.9-1.1 3.4-.8 3.4.3 0 0 .7-.7 1.5s-1 1.5-.7 1.5c.6 0-3.4 9.8-8.7 21.2-1.5 3.2-2.5 5.9-2.4 6 .2.2-.6 1.6-1.8 3.3-1.1 1.6-2.7 4.6-3.4 6.5-2 5.3-7 11.8-10.4 13.8-2.7 1.6-5 1.8-16.1 1.5-12.9-.3-18.1-.6-30.5-1.7-10.1-.9-16.2-1.5-19.5-2.1-1.6-.2-5-.7-7.5-1-8.1-1-15.3-3-18.7-5.2-4.1-2.7-14.7-13.8-24.8-25.8-2.7-3.3-10.7-11.8-17.6-19-13.2-13.6-14-14.4-22.9-24.5-9-10.2-25-27.9-28.2-31.1-.9-1-3.1-4.4-4.9-7.6-3.7-6.6-2.8-5.8-17.9-17.5-5.6-4.4-22.9-22.1-35.5-36.4-13.8-15.6-27.3-29.6-32.9-33.9-4.9-3.8-6.4-5.4-15.6-15.5-8.7-9.7-10-11-23-25-5.4-5.8-10.9-11.7-12.2-13.1-1.3-1.5-5.4-6.2-9.3-10.5-3.8-4.4-21.6-22.6-39.5-40.5-38.1-38.3-39.9-40.2-47-49.4-3-3.9-14-15.8-24.6-26.5-22-22.2-29.8-30.3-47.4-49-6.9-7.3-16.6-17.3-21.7-22.3-11.1-11-15-18.8-9.8-19.4 3.4-.3 7.7-1.4 9.4-2.2.9-.5 1.8-.9 2.1-.9.8-.1 4.1-1.3 8-3 1.9-.8 3.7-1.6 4-1.7.3-.1 3.4-1.6 6.9-3.3 3.6-1.8 7-3.2 7.8-3.2.7 0 1.3-.5 1.3-1.2 0-.6.2-.9.5-.6.3.3 2.6 0 5.2-.7 5.7-1.4 11-1.3 15.5.5zm419.8 8.5c6.1 3 15.9 8.9 21.9 12.9 11.8 8.1 17.1 11.1 17.2 9.9 0-.5.4.1.8 1.2 1.1 2.8.3 28-1.1 34.5-.6 3-1.3 6.1-1.4 6.8-.3 1.5-3.4 12-4.2 14.2-1.4 3.9-1.9 6-3.7 16.5-.3 1.6-.8 7-1 12-.9 19.2-2.2 23.3-7.5 23.8-5.8.4-10-1.4-15.9-6.8-3.2-3-6.2-5.5-6.5-5.5-.6 0-6.4-3.8-7.6-5-.3-.3-6.8-4.7-14.5-9.9S640.8 335.9 640 335c-.8-.8-3.5-3.1-6-5s-4.6-3.8-4.8-4.2c-.2-.5-.8-.8-1.3-.8-.6 0-1.5-.5-2.2-1-.7-.6-4.9-3.6-9.3-6.8-8-5.6-16.6-12.6-23-18.7-1.7-1.7-7-5.7-11.8-8.9-4.7-3.2-9.4-6.8-10.4-8-.9-1.2-3.8-3.6-6.3-5.3-4.4-3.1-8.6-8-7.6-9 .3-.2 1.3-.6 2.4-.8 1-.2 1.9-.4 2.1-.4.1-.1.4-.1.7-.1.3-.1 2.3-.7 4.5-1.5s4.4-1.5 4.8-1.5c1.4-.2 5.9-1.3 14.2-3.6 4.7-1.2 9.6-2.5 11-2.8 1.4-.3 5.2-1.3 8.5-2.2 3.3-.9 6.5-1.7 7-1.9.6-.1 1.7-.5 2.5-.8.8-.3 2.9-.9 4.5-1.3 3.4-.8 4.2-1 5.3-1.4.4-.1 1-.2 1.4-.1.4 0 2.5-.6 4.7-1.4 2.3-.8 4.1-1.2 4.1-.9 0 .2.9 0 1.9-.6 1.1-.5 3.9-1.2 6.3-1.5 2.4-.3 4.4-.9 4.6-1.4.1-.4 1.3-.6 2.6-.4 1.3.3 2.7 0 3-.6.4-.6 1.5-1.1 2.4-1.1.9 0 4-1.1 6.7-2.4 2.8-1.4 5.1-2.5 5.3-2.5.1-.1 5.2 2.4 11.2 5.4zM257.8 560.2c2 1.8 19.7 19.3 39.3 38.8 19.6 19.5 40.8 40.2 47 46 6.3 5.7 13 11.9 14.9 13.7 1.9 1.7 4.9 4.4 6.6 6 29.3 26.5 37.8 35.2 36.1 37-.4.3-5.7 2.2-11.9 4.3-6.2 2.1-13.4 5-16.1 6.5-2.6 1.5-5.3 2.8-6 2.9-.6.2-1.9.6-2.7.9-.8.3-4.9 1.1-9 1.7-12.4 1.9-22.4 4.9-24.1 7.3-.3.5-1 .9-1.5.9-.5-.1-2.2.6-3.9 1.3-9.8 4.5-12.5 4.9-35.8 5.3l-22.7.4-4.3-2.5c-2.3-1.4-5.5-3.8-7.2-5.4-16.8-15.7-21-19.4-24.7-21.3-2.3-1.2-5.6-3.8-7.4-5.9-1.8-2-5.9-5-9-6.7-8-4.1-8.9-5.9-8.8-16.9 0-7.6.5-9.9 2.7-14.9 1.5-3.2 2.7-6.4 2.7-7.1 0-.8.4-1.5.8-1.7.5-.2 3.5-7.1 6.7-15.3 3.2-8.3 6.8-17 7.9-19.5 1.1-2.5 2.1-5 2.2-5.5.2-.8 8.6-20.6 12.3-29 .5-1.1 3.1-7.1 5.6-13.3 2.6-6.1 5.2-11.2 5.7-11.2s2.5 1.5 4.6 3.2z"/></svg>