<?xml version="1.0" standalone="no"?>
<!DOCTYPE svg PUBLIC "-//W3C//DTD SVG 20010904//EN"
 "http://www.w3.org/TR/2001/REC-SVG-20010904/DTD/svg10.dtd">
<svg version="1.0" xmlns="http://www.w3.org/2000/svg"
 width="500.000000pt" height="500.000000pt" viewBox="0 0 500.000000 500.000000"
 preserveAspectRatio="xMidYMid meet">
<metadata>
Created by potrace 1.11, written by Peter Selinger 2001-2013
</metadata>
<g transform="translate(0.000000,500.000000) scale(0.100000,-0.100000)"
fill="#000000" stroke="none">
<path d="M2308 4995 c-2 -1 -34 -6 -73 -9 -255 -24 -559 -111 -812 -231 -269
-128 -480 -279 -703 -504 -196 -198 -339 -399 -465 -656 -62 -125 -155 -369
-169 -441 -2 -10 -11 -46 -19 -79 -22 -85 -40 -191 -57 -340 -16 -146 -3 -483
25 -655 66 -389 227 -760 474 -1090 99 -133 318 -357 441 -452 389 -300 830
-477 1310 -527 83 -8 465 -7 505 2 11 2 47 8 80 12 63 7 72 9 150 25 28 6 61
12 74 15 55 10 213 59 316 98 578 216 1065 655 1345 1212 36 72 74 150 84 175
19 48 95 270 101 298 2 9 13 60 25 112 12 52 23 111 26 130 2 19 7 46 9 60 34
176 24 597 -20 825 -14 77 -68 281 -76 290 -5 5 -9 16 -9 25 0 29 -90 242
-151 359 -87 166 -198 332 -318 476 -32 38 -211 217 -271 271 -133 120 -365
270 -560 363 -241 114 -462 179 -755 222 -70 10 -498 22 -507 14z m-906 -1241
c29 -22 62 -45 73 -51 188 -114 234 -147 239 -168 9 -35 42 -63 114 -97 34
-17 62 -35 62 -39 0 -5 25 -21 57 -34 45 -20 302 -183 323 -205 3 -3 68 -47
145 -99 77 -52 142 -97 145 -100 3 -3 16 -12 30 -20 14 -8 66 -45 115 -82 50
-37 117 -82 150 -100 51 -27 88 -52 140 -92 5 -4 48 -33 95 -63 47 -31 87 -59
90 -63 9 -12 258 -179 292 -196 18 -8 56 -37 84 -63 54 -50 82 -67 126 -76 15
-3 33 -12 40 -19 7 -7 29 -23 48 -37 19 -13 83 -59 142 -103 115 -86 112 -80
93 -165 -3 -15 -7 -36 -10 -47 -11 -56 -88 -323 -105 -365 -38 -98 -100 -210
-125 -226 -20 -13 -43 -15 -143 -10 -65 4 -129 9 -143 11 -13 2 -44 6 -69 9
-116 14 -127 21 -236 144 -43 48 -103 114 -135 147 -120 125 -239 260 -270
306 -14 21 -45 53 -70 70 -24 18 -51 40 -59 49 -72 81 -237 256 -340 359 -69
69 -161 166 -205 216 -44 49 -173 184 -287 300 -114 115 -221 228 -238 250
-17 22 -106 116 -197 210 -91 93 -208 213 -259 266 -93 95 -116 138 -76 140
32 1 47 6 137 48 113 52 151 51 227 -5z m2143 -18 c35 -19 86 -51 113 -70 27
-20 54 -36 60 -36 6 0 12 -4 14 -10 4 -12 -8 -178 -15 -205 -3 -11 -14 -54
-25 -95 -12 -41 -23 -110 -25 -154 -6 -96 -18 -114 -70 -97 -20 7 -41 19 -49
28 -7 9 -58 46 -113 84 -55 38 -125 88 -156 111 -30 24 -68 52 -83 63 -16 11
-63 48 -105 82 -42 35 -95 77 -119 95 -79 61 -98 87 -67 89 8 1 18 2 23 4 4 1
21 5 37 9 17 5 88 24 159 43 70 19 135 37 145 38 9 2 16 4 16 5 0 1 13 4 29 6
16 3 52 13 80 23 72 26 79 25 151 -13z m-2217 -1634 c6 -5 121 -116 255 -248
133 -131 265 -259 292 -283 71 -62 188 -173 203 -193 11 -14 8 -18 -25 -28
-21 -7 -68 -26 -106 -42 -37 -16 -84 -31 -105 -33 -38 -4 -68 -13 -171 -55
-44 -17 -75 -21 -168 -21 -127 -1 -135 2 -219 81 -54 51 -100 87 -159 126 -22
15 -43 32 -47 38 -18 26 -7 101 26 179 19 45 71 168 115 274 45 106 81 197 81
203 0 12 10 13 28 2z"/>
</g>
</svg>
