<svg width="133" height="103" viewBox="0 0 133 103" fill="none" xmlns="http://www.w3.org/2000/svg">
<circle cx="412" cy="411" r="210" stroke="white" stroke-width="20"/>
<path d="M402 611V621H422V611H402ZM422 311C422 305.477 417.523 301 412 301C406.477 301 402 305.477 402 311H422ZM422 611V311H402V611H422Z" fill="white"/>
<path d="M337.404 506.618C341.122 508.213 344.637 510.243 347.878 512.665L348.482 513.116C351.463 515.344 354.157 517.932 356.504 520.821L357.312 521.817C359.425 524.417 361.165 527.3 362.481 530.381L363.02 531.644C364.226 534.468 364.957 537.472 365.181 540.535L365.247 541.434C365.467 544.444 365.099 547.468 364.163 550.338V550.338C363.159 553.412 361.525 556.243 359.364 558.649V558.649C357.348 560.895 354.913 562.725 352.196 564.039L351.384 564.432C348.619 565.769 345.652 566.639 342.604 567.006L341.241 567.17C337.914 567.571 334.548 567.506 331.239 566.977L329.973 566.775C326.298 566.187 322.709 565.147 319.289 563.679L318.596 563.382C314.878 561.787 311.363 559.757 308.122 557.335L307.519 556.884C304.537 554.656 301.843 552.068 299.496 549.179L298.688 548.183C296.575 545.583 294.836 542.7 293.519 539.619L292.98 538.356C291.774 535.532 291.044 532.528 290.819 529.465L290.753 528.566C290.533 525.556 290.901 522.532 291.837 519.662V519.662C292.841 516.588 294.475 513.757 296.636 511.351V511.351C298.652 509.105 301.087 507.274 303.804 505.961L304.616 505.568C307.381 504.231 310.348 503.361 313.396 502.994L314.759 502.83C318.086 502.429 321.452 502.494 324.761 503.023L326.027 503.225C329.702 503.813 333.291 504.853 336.711 506.321L337.404 506.618Z" fill="white"/>
<path d="M472.122 512.665C475.363 510.243 478.878 508.213 482.596 506.618L483.289 506.321C486.709 504.853 490.298 503.813 493.973 503.225L495.239 503.023C498.548 502.494 501.914 502.429 505.241 502.83L506.604 502.994C509.652 503.361 512.619 504.231 515.384 505.568L516.196 505.961C518.913 507.274 521.348 509.105 523.364 511.351V511.351C525.525 513.757 527.159 516.588 528.163 519.662V519.662C529.099 522.532 529.467 525.556 529.247 528.566L529.181 529.465C528.957 532.528 528.226 535.532 527.02 538.356L526.481 539.619C525.165 542.7 523.425 545.583 521.312 548.183L520.504 549.179C518.157 552.068 515.463 554.656 512.482 556.884L511.878 557.335C508.637 559.757 505.122 561.787 501.404 563.382L500.711 563.679C497.291 565.147 493.702 566.187 490.027 566.775L488.761 566.977C485.452 567.506 482.086 567.571 478.759 567.17L477.396 567.006C474.348 566.639 471.381 565.769 468.616 564.432L467.804 564.039C465.087 562.725 462.652 560.895 460.636 558.649V558.649C458.475 556.243 456.841 553.412 455.837 550.338V550.338C454.901 547.468 454.533 544.444 454.753 541.434L454.819 540.535C455.044 537.472 455.774 534.468 456.98 531.644L457.519 530.381C458.836 527.3 460.575 524.417 462.688 521.817L463.496 520.821C465.843 517.932 468.537 515.344 471.519 513.116L472.122 512.665Z" fill="white"/>
<path d="M297.404 416.618C301.122 418.213 304.637 420.243 307.878 422.665L308.482 423.116C311.463 425.344 314.157 427.932 316.504 430.821L317.312 431.817C319.425 434.417 321.165 437.3 322.481 440.381L323.02 441.644C324.226 444.468 324.957 447.472 325.181 450.535L325.247 451.434C325.467 454.444 325.099 457.468 324.163 460.338V460.338C323.159 463.412 321.525 466.243 319.364 468.649V468.649C317.348 470.895 314.913 472.725 312.196 474.039L311.384 474.432C308.619 475.769 305.652 476.639 302.604 477.006L301.241 477.17C297.914 477.571 294.548 477.506 291.239 476.977L289.973 476.775C286.298 476.187 282.709 475.147 279.289 473.679L278.596 473.382C274.878 471.787 271.363 469.757 268.122 467.335L267.519 466.884C264.537 464.656 261.843 462.068 259.496 459.179L258.688 458.183C256.575 455.583 254.836 452.7 253.519 449.619L252.98 448.356C251.774 445.532 251.044 442.528 250.819 439.465L250.753 438.566C250.533 435.556 250.901 432.532 251.837 429.662V429.662C252.841 426.588 254.475 423.757 256.636 421.351V421.351C258.652 419.105 261.087 417.274 263.804 415.961L264.616 415.568C267.381 414.231 270.348 413.361 273.396 412.994L274.759 412.83C278.086 412.429 281.452 412.494 284.761 413.023L286.027 413.225C289.702 413.813 293.291 414.853 296.711 416.321L297.404 416.618Z" fill="white"/>
<path d="M512.122 422.665C515.363 420.243 518.878 418.213 522.596 416.618L523.289 416.321C526.709 414.853 530.298 413.813 533.973 413.225L535.239 413.023C538.548 412.494 541.914 412.429 545.241 412.83L546.604 412.994C549.652 413.361 552.619 414.231 555.384 415.568L556.196 415.961C558.913 417.274 561.348 419.105 563.364 421.351V421.351C565.525 423.757 567.159 426.588 568.163 429.662V429.662C569.099 432.532 569.467 435.556 569.247 438.566L569.181 439.465C568.957 442.528 568.226 445.532 567.02 448.356L566.481 449.619C565.165 452.7 563.425 455.583 561.312 458.183L560.504 459.179C558.157 462.068 555.463 464.656 552.482 466.884L551.878 467.335C548.637 469.757 545.122 471.787 541.404 473.382L540.711 473.679C537.291 475.147 533.702 476.187 530.027 476.775L528.761 476.977C525.452 477.506 522.086 477.571 518.759 477.17L517.396 477.006C514.348 476.639 511.381 475.769 508.616 474.432L507.804 474.039C505.087 472.725 502.652 470.895 500.636 468.649V468.649C498.475 466.243 496.841 463.412 495.837 460.338V460.338C494.901 457.468 494.533 454.444 494.753 451.434L494.819 450.535C495.044 447.472 495.774 444.468 496.98 441.644L497.519 440.381C498.836 437.3 500.575 434.417 502.688 431.817L503.496 430.821C505.843 427.932 508.537 425.344 511.519 423.116L512.122 422.665Z" fill="white"/>
<path d="M297.404 326.618C301.122 328.213 304.637 330.243 307.878 332.665L308.482 333.116C311.463 335.344 314.157 337.932 316.504 340.821L317.312 341.817C319.425 344.417 321.165 347.3 322.481 350.381L323.02 351.644C324.226 354.468 324.957 357.472 325.181 360.535L325.247 361.434C325.467 364.444 325.099 367.468 324.163 370.338V370.338C323.159 373.412 321.525 376.243 319.364 378.649V378.649C317.348 380.895 314.913 382.725 312.196 384.039L311.384 384.432C308.619 385.769 305.652 386.639 302.604 387.006L301.241 387.17C297.914 387.571 294.548 387.506 291.239 386.977L289.973 386.775C286.298 386.187 282.709 385.147 279.289 383.679L278.596 383.382C274.878 381.787 271.363 379.757 268.122 377.335L267.519 376.884C264.537 374.656 261.843 372.068 259.496 369.179L258.688 368.183C256.575 365.583 254.836 362.7 253.519 359.619L252.98 358.356C251.774 355.532 251.044 352.528 250.819 349.465L250.753 348.566C250.533 345.556 250.901 342.532 251.837 339.662V339.662C252.841 336.588 254.475 333.757 256.636 331.351V331.351C258.652 329.105 261.087 327.274 263.804 325.961L264.616 325.568C267.381 324.231 270.348 323.361 273.396 322.994L274.759 322.83C278.086 322.429 281.452 322.494 284.761 323.023L286.027 323.225C289.702 323.813 293.291 324.853 296.711 326.321L297.404 326.618Z" fill="white"/>
<path d="M512.122 332.665C515.363 330.243 518.878 328.213 522.596 326.618L523.289 326.321C526.709 324.853 530.298 323.813 533.973 323.225L535.239 323.023C538.548 322.494 541.914 322.429 545.241 322.83L546.604 322.994C549.652 323.361 552.619 324.231 555.384 325.568L556.196 325.961C558.913 327.274 561.348 329.105 563.364 331.351V331.351C565.525 333.757 567.159 336.588 568.163 339.662V339.662C569.099 342.532 569.467 345.556 569.247 348.566L569.181 349.465C568.957 352.528 568.226 355.532 567.02 358.356L566.481 359.619C565.165 362.7 563.425 365.583 561.312 368.183L560.504 369.179C558.157 372.068 555.463 374.656 552.482 376.884L551.878 377.335C548.637 379.757 545.122 381.787 541.404 383.382L540.711 383.679C537.291 385.147 533.702 386.187 530.027 386.775L528.761 386.977C525.452 387.506 522.086 387.571 518.759 387.17L517.396 387.006C514.348 386.639 511.381 385.769 508.616 384.432L507.804 384.039C505.087 382.725 502.652 380.895 500.636 378.649V378.649C498.475 376.243 496.841 373.412 495.837 370.338V370.338C494.901 367.468 494.533 364.444 494.753 361.434L494.819 360.535C495.044 357.472 495.774 354.468 496.98 351.644L497.519 350.381C498.836 347.3 500.575 344.417 502.688 341.817L503.496 340.821C505.843 337.932 508.537 335.344 511.519 333.116L512.122 332.665Z" fill="white"/>
<path d="M349.404 241.618C353.122 243.213 356.637 245.243 359.878 247.665L360.482 248.116C363.463 250.344 366.157 252.932 368.504 255.821L369.312 256.817C371.425 259.417 373.165 262.3 374.481 265.381L375.02 266.644C376.226 269.468 376.957 272.472 377.181 275.535L377.247 276.434C377.467 279.444 377.099 282.468 376.163 285.338V285.338C375.159 288.412 373.525 291.243 371.364 293.649V293.649C369.348 295.895 366.913 297.725 364.196 299.039L363.384 299.432C360.619 300.769 357.652 301.639 354.604 302.006L353.241 302.17C349.914 302.571 346.548 302.506 343.239 301.977L341.973 301.775C338.298 301.187 334.709 300.147 331.289 298.679L330.596 298.382C326.878 296.787 323.363 294.757 320.122 292.335L319.519 291.884C316.537 289.656 313.843 287.068 311.496 284.179L310.688 283.183C308.575 280.583 306.836 277.7 305.519 274.619L304.98 273.356C303.774 270.532 303.044 267.528 302.819 264.465L302.753 263.566C302.533 260.556 302.901 257.532 303.837 254.662V254.662C304.841 251.588 306.475 248.757 308.636 246.351V246.351C310.652 244.105 313.087 242.274 315.804 240.961L316.616 240.568C319.381 239.231 322.348 238.361 325.396 237.994L326.759 237.83C330.086 237.429 333.452 237.494 336.761 238.023L338.027 238.225C341.702 238.813 345.291 239.853 348.711 241.321L349.404 241.618Z" fill="white"/>
<path d="M460.122 247.665C463.363 245.243 466.878 243.213 470.596 241.618L471.289 241.321C474.709 239.853 478.298 238.813 481.973 238.225L483.239 238.023C486.548 237.494 489.914 237.429 493.241 237.83L494.604 237.994C497.652 238.361 500.619 239.231 503.384 240.568L504.196 240.961C506.913 242.274 509.348 244.105 511.364 246.351V246.351C513.525 248.757 515.159 251.588 516.163 254.662V254.662C517.099 257.532 517.467 260.556 517.247 263.566L517.181 264.465C516.957 267.528 516.226 270.532 515.02 273.356L514.481 274.619C513.165 277.7 511.425 280.583 509.312 283.183L508.504 284.179C506.157 287.068 503.463 289.656 500.482 291.884L499.878 292.335C496.637 294.757 493.122 296.787 489.404 298.382L488.711 298.679C485.291 300.147 481.702 301.187 478.027 301.775L476.761 301.977C473.452 302.506 470.086 302.571 466.759 302.17L465.396 302.006C462.348 301.639 459.381 300.769 456.616 299.432L455.804 299.039C453.087 297.725 450.652 295.895 448.636 293.649V293.649C446.475 291.243 444.841 288.412 443.837 285.338V285.338C442.901 282.468 442.533 279.444 442.753 276.434L442.819 275.535C443.044 272.472 443.774 269.468 444.98 266.644L445.519 265.381C446.836 262.3 448.575 259.417 450.688 256.817L451.496 255.821C453.843 252.932 456.537 250.344 459.519 248.116L460.122 247.665Z" fill="white"/>
<path d="M372 260.5L373.75 267L374.75 271.5V274.5V279V283.5L372.75 287L370.25 291L367.25 294L363.75 297L359.75 299L355.75 300.5L351.25 301H345.25L341 300.5L335.5 299H331L345.25 303.5L351.25 305L357.75 307L363.75 309.5L370.25 311.5L379.25 314.5L388.75 318.5L397.5 321.5L402.5 329.5V317V307L410 301H406L399.5 297L394 291L388 283.5L380.5 272.5L372 260.5Z" fill="white"/>
<path d="M446.5 262.5V270L448.75 272.5V275.5V280V284.5L450.75 288L453.25 292L456.25 295L459.75 298L463.75 300L467.75 301.5L472.25 302L477 301L480 299.5L483.5 297L490 298L478.25 304.5L472.25 306L465.75 308L459.75 310.5L453.25 312.5L444.25 315.5L434.75 319.5L426 322.5L421 330.5V318V308L413.5 301H420L425.5 297L429.5 292L435.5 284.5L442 273.5L446.5 262.5Z" fill="white"/>
<path d="M319.25 346L322.75 352.5L323.75 357V360V364.5V369L321.75 372.5L319.25 376.5L316.25 379.5L312.75 382.5L308.75 384.5L304.75 386L300.25 386.5H294.25L290 386L284.5 384.5H280L294.25 389L300.25 390.5L306.75 392.5L318.5 395.5L332.5 397.5L355 403L376 406.5L396.5 413.5L404.5 420.5V409V400.5V386.5L399.5 390L392.5 390.5L374 389L358 384.5L343 376.5L337 369L329.5 358L319.25 346Z" fill="white"/>
<path d="M319.25 435L322.75 441.5L323.75 446V449V453.5V458L321.75 461.5L319.25 465.5L316.25 468.5L312.75 471.5L308.75 473.5L304.75 475L300.25 475.5H294.25L290 475L284.5 473.5H280L294.25 478L300.25 479.5L308.75 481.5L321 484L337 488.5L354.5 492L372 495L393.5 500L404.5 507V495V484V471.5L395 478H382L363 475.5L350.5 471.5L343 465.5L337 458L329.5 447L319.25 435Z" fill="white"/>
<path d="M500.5 345.536L498.75 352.036L497.75 356.536V359.536V364.036V368.536L499.75 372.036L502.25 376.036L505.25 379.036L508.75 382.036L512.75 384.036L516.75 385.536L521.25 386.036H527.25L531.5 385.536L537 384.036H541.5L527.25 388.536L521.25 390.036L514.75 392.036L508.75 394.536L497 397.536L480 401.536L459.5 406.536L434.5 411.536L420.5 418.5V406.536V396.536L421.5 385.536L428 390.036L451 388.536L474 382.036L487 370.536L493.25 361.036L500.5 345.536Z" fill="white"/>
<path d="M499 436L497.25 442.5L496.25 447V450V454.5V459L498.25 462.5L500.75 466.5L503.75 469.5L507.25 472.5L511.25 474.5L515.25 476L519.75 476.5H525.75L530 476L535.5 474.5H540L525.75 479L519.75 480.5L513.25 482.5L507.25 485L500.75 487L491.75 490L480.5 492L465.5 494L449 496L433 500L420 506V494V482.5V472.5L426.5 476.5H434.5L449 474.5L467 468L480.5 459L490.5 448L499 436Z" fill="white"/>
<path d="M461 525L459.25 531.5L458.25 536V539V543.5V548L460.25 551.5L462.75 555.5L465.75 558.5L469.25 561.5L473.25 563.5L477.25 565L481.75 565.5H487.75L492 565L497.5 563.5H502L487.75 568L481.75 569.5L475.25 571.5L469.25 574L462.75 576L451 578.5L441 581.5L432.5 585L425.5 590L421.5 595L419 600L416 585L415 572.5L413.5 560.5L421.5 564H428L433.5 561.5L439 555.5L445 548L452.5 537L461 525Z" fill="white"/>
<path d="M359 524L360.75 530.5L361.75 535V538V542.5V547L359.75 550.5L357.25 554.5L354.25 557.5L350.75 560.5L346.75 562.5L342.75 564L338.25 564.5H332.25L328 564L322.5 562.5H318L332.25 567L338.25 568.5L344.75 570.5L350.75 573L357.25 575L369 577.5L379 580.5L387.5 584L394.5 589L400 593.5L404 598.5V584L405 571.5L406.5 559.5L402 563H392L386.5 560.5L381 554.5L375 547L367.5 536L359 524Z" fill="white"/>
</svg>

 