<?xml version="1.0" encoding="UTF-8" standalone="no"?>
<!-- Created with Inkscape (http://www.inkscape.org/) -->

<svg
   width="32.108101mm"
   height="32.704636mm"
   viewBox="0 0 32.108101 32.704636"
   version="1.1"
   id="svg1"
   xml:space="preserve"
   xmlns="http://www.w3.org/2000/svg"
   xmlns:svg="http://www.w3.org/2000/svg"><defs
     id="defs1" /><g
     id="layer1"
     transform="translate(-113.83142,-110.87377)"><path
       d="m 130.27315,120.51532 2.33548,7.39723 c 0.20902,0.66198 0.72761,1.18057 1.38959,1.38959 l 7.39722,2.33547 c 0.29263,0.0923 0.29263,0.50668 0,0.59902 l -7.39722,2.33548 c -0.66198,0.20902 -1.18057,0.7276 -1.38959,1.38959 l -2.33548,7.39722 c -0.0923,0.29263 -0.50667,0.29263 -0.59901,0 l -2.33548,-7.39722 c -0.20902,-0.66199 -0.7276,-1.18057 -1.38959,-1.38959 l -7.39722,-2.33548 c -0.29263,-0.0923 -0.29263,-0.50668 0,-0.59902 l 7.39722,-2.33547 c 0.66199,-0.20902 1.18057,-0.72761 1.38959,-1.38959 l 2.33548,-7.39723 c 0.0921,-0.29289 0.50641,-0.29289 0.59901,0 z"
       style="fill:#ffffff;fill-opacity:1;stroke:none;stroke-width:1.25;stroke-linecap:butt;stroke-linejoin:miter;stroke-miterlimit:2.3;stroke-dasharray:none;stroke-opacity:1;paint-order:normal"
       id="path1" /><path
       d="m 118.94904,116.32968 1.00094,3.17031 c 0.0895,0.28371 0.31184,0.50596 0.59556,0.59555 l 3.1703,1.00093 c 0.12547,0.0396 0.12547,0.21716 0,0.25674 l -3.1703,1.00094 c -0.28372,0.0895 -0.50598,0.31183 -0.59556,0.59555 l -1.00094,3.1703 c -0.0396,0.12547 -0.21715,0.12547 -0.25672,0 l -1.00094,-3.1703 c -0.0895,-0.28372 -0.31183,-0.50597 -0.59555,-0.59555 l -3.1703,-1.00094 c -0.12547,-0.0396 -0.12547,-0.21715 0,-0.25674 l 3.1703,-1.00093 c 0.28372,-0.0895 0.50597,-0.31184 0.59555,-0.59555 l 1.00094,-3.17031 c 0.0395,-0.12547 0.21704,-0.12547 0.25672,0 z"
       style="fill:#ffffff;fill-opacity:1;stroke:none;stroke-width:0.535726;stroke-linecap:butt;stroke-linejoin:miter;stroke-miterlimit:2.3;stroke-dasharray:none;stroke-opacity:1;paint-order:normal"
       id="path2" /><path
       d="m 141.07863,116.32968 1.00094,3.17031 c 0.0895,0.28371 0.31184,0.50596 0.59556,0.59555 l 3.1703,1.00093 c 0.12547,0.0396 0.12547,0.21716 0,0.25674 l -3.1703,1.00094 c -0.28372,0.0895 -0.50598,0.31183 -0.59556,0.59555 l -1.00094,3.1703 c -0.0396,0.12547 -0.21715,0.12547 -0.25672,0 l -1.00094,-3.1703 c -0.0895,-0.28372 -0.31183,-0.50597 -0.59555,-0.59555 l -3.1703,-1.00094 c -0.12547,-0.0396 -0.12547,-0.21715 0,-0.25674 l 3.1703,-1.00093 c 0.28372,-0.0895 0.50597,-0.31184 0.59555,-0.59555 l 1.00094,-3.17031 c 0.0395,-0.12547 0.21704,-0.12547 0.25672,0 z"
       style="fill:#ffffff;fill-opacity:1;stroke:none;stroke-width:0.535726;stroke-linecap:butt;stroke-linejoin:miter;stroke-miterlimit:2.3;stroke-dasharray:none;stroke-opacity:1;paint-order:normal"
       id="path3" /><path
       d="m 129.97939,110.94261 0.73235,2.31962 c 0.0655,0.20758 0.22817,0.3702 0.43576,0.43575 l 2.31961,0.73234 c 0.0918,0.029 0.0918,0.15889 0,0.18785 l -2.31961,0.73236 c -0.20759,0.0655 -0.37021,0.22816 -0.43576,0.43574 l -0.73235,2.31961 c -0.029,0.0918 -0.15888,0.0918 -0.18784,0 l -0.73235,-2.31961 c -0.0655,-0.20758 -0.22816,-0.3702 -0.43575,-0.43574 l -2.31961,-0.73236 c -0.0918,-0.029 -0.0918,-0.15888 0,-0.18785 l 2.31961,-0.73234 c 0.20759,-0.0655 0.3702,-0.22817 0.43575,-0.43575 l 0.73235,-2.31962 c 0.0289,-0.0918 0.15881,-0.0918 0.18784,0 z"
       style="fill:#ffffff;fill-opacity:1;stroke:none;stroke-width:0.391974;stroke-linecap:butt;stroke-linejoin:miter;stroke-miterlimit:2.3;stroke-dasharray:none;stroke-opacity:1;paint-order:normal"
       id="path4" /></g></svg>
