<?xml version="1.0" encoding="UTF-8" standalone="no"?>
<!-- Created with Inkscape (http://www.inkscape.org/) -->

<svg
   width="391.98511mm"
   height="436.38672mm"
   viewBox="0 0 391.98511 436.38672"
   version="1.1"
   id="svg1"
   xml:space="preserve"
   xmlns="http://www.w3.org/2000/svg"
   xmlns:svg="http://www.w3.org/2000/svg"><defs
     id="defs1" /><g
     id="layer1"
     transform="translate(-728.71236,79.895414)"><path
       style="fill:#ffffff;fill-opacity:1"
       d="M 923.78805,356.49122 C 853.8726,356.54978 777.14338,308.89688 747.70819,244.92656 726.21484,201.49139 723.70097,150.23324 736.43742,103.861 c 13.46228,3.49629 35.3046,14.69134 48.20055,-2.32328 47.72111,-59.445922 91.9301,-121.810681 139.39185,-181.433131 47.79855,58.777107 92.69638,120.599856 140.69608,181.080351 12.896,17.01465 34.7383,5.81953 48.2006,2.32328 16.6673,58.23286 6.4549,123.78209 -29.9771,172.60873 -38.0534,53.83199 -89.2459,80.31571 -159.16135,80.37427 z m 0.28578,-108.20158 c 37.45257,0 73.68674,-45.39772 56.79422,-80.944 -14.33616,-29.08216 -33.70072,-56.09186 -56.71478,-79.32365 -22.79685,23.91035 -41.69846,51.45466 -56.31055,81.20803 -17.01404,38.94335 18.77854,79.05962 56.23111,79.05962 z"
       id="path3" /></g></svg>
