<svg xmlns="http://www.w3.org/2000/svg" viewBox="0 0 257.53 274.59" fill="white"><g id="Layer_3" data-name="Layer 3"><path d="M271.34,188.35c-6.83-8.86-26.92-19.93-46.38-12.89-17.44,6.31-20.47,26.41-20.91,30.52a2.1,2.1,0,0,1-.66,1.3c-22.83,21.19-43.08,18.56-48.72,17.26a2,2,0,0,1-1.56-2c-.14-35.28-5-45.37-7.57-48.23a2,2,0,0,0-3.08,0c-2.56,2.86-7.43,12.95-7.57,48.23a2,2,0,0,1-1.56,2c-5.64,1.3-25.89,3.93-48.72-17.26A2.1,2.1,0,0,1,84,206c-.44-4.11-3.47-24.21-20.91-30.52-19.46-7-39.55,4-46.38,12.89s12.63-2.65,22,0,25.67,13.41,12.83,27.07-16.77,10.21-21.53,10,2.9,19.23,14.49,15.71,22.23-8.91,29.75-3.11,5,18.84,2.14,22.36-16.77,5.39-8.28,12a14.52,14.52,0,0,1,4.21,3.32c1.59,2,4.55,9.73,10.7,2.76s18.43-11.67,29.19-6.49,7.87.41,14.5-1.66,8.49.47,8.69-6c0,0-.13-1,8.7-1s8.7,1,8.7,1c.2,6.47,2.07,3.93,8.69,6s3.73,6.84,14.5,1.66,23.05-.48,29.19,6.49,9.11-.76,10.7-2.76a14.52,14.52,0,0,1,4.21-3.32c8.49-6.62-5.38-8.49-8.28-12s-5.38-16.56,2.14-22.36,18.15-.41,29.75,3.11,19.25-15.95,14.49-15.71-8.7,3.7-21.53-10,3.52-24.43,12.83-27.07S278.18,197.2,271.34,188.35ZM134.88,256.1c-36.55-.19-43.5-5.45-44.78-7.07a1.94,1.94,0,0,1-.34-.71c-5-19.68-15-23.58-27.48-23s-11,0-1.55-7.76,3.72-20.09-3.32-27.44,5.91-3.1,5.91-3.1c9.42,4.17,9.93,20.6,9.93,20.6.63,8.07,8.49,11,21.87,19.05,11.3,6.82,33.4,9.14,40,9.69a2.05,2.05,0,0,1,1.88,2v15.61A2.06,2.06,0,0,1,134.88,256.1Zm95.71-65.94c-7,7.35-12.74,19.67-3.32,27.44s11,8.38-1.55,7.76-22.49,3.28-27.48,23a1.94,1.94,0,0,1-.34.71c-1.28,1.62-8.23,6.88-44.78,7.07a2.06,2.06,0,0,1-2.08-2.05V238.44a2.05,2.05,0,0,1,1.88-2c6.56-.55,28.66-2.87,40-9.69,13.38-8.08,21.24-11,21.87-19.05,0,0,.51-16.43,9.93-20.6C224.68,187.06,237.63,182.81,230.59,190.16Z" transform="translate(-15.23 -6.71)"/></g><g id="Layer_2" data-name="Layer 2"><path d="M197.14,52.81,151.8,7.6a3.08,3.08,0,0,0-2.16-.89H138.36a3.08,3.08,0,0,0-2.16.89L90.86,52.81A3.1,3.1,0,0,0,90,54.47l-15.81,96.1a3.09,3.09,0,0,0,.37,2l31.29,54.26a3,3,0,0,0,2.64,1.53h9.26a3.07,3.07,0,0,0,2.69-1.59l1.4-2.57a3.06,3.06,0,0,0,.3-.83l7.26-34a3.06,3.06,0,0,1,3-2.42h23.22a3.06,3.06,0,0,1,3,2.42l7.26,34a3.06,3.06,0,0,0,.3.83l1.4,2.57a3.07,3.07,0,0,0,2.69,1.59h9.26a3,3,0,0,0,2.64-1.53l31.29-54.26a3.09,3.09,0,0,0,.37-2L198,54.47A3.1,3.1,0,0,0,197.14,52.81Zm4.82,70.3-.14.73a3.06,3.06,0,0,1-4.86,1.82l-6.52-5a3,3,0,0,1-1.11-1.75L177.71,67.64A3.05,3.05,0,0,1,180,64l4.65-1.1a3.06,3.06,0,0,1,3.67,2.26l13.63,56.65A3,3,0,0,1,202,123.11ZM153.86,22.8l28.46,27.11a3,3,0,0,1,1,2.21v.6a3.06,3.06,0,0,1-3.05,3.06h-4.06a3.06,3.06,0,0,1-2.29-1L149.46,27a3,3,0,0,1-.77-2h0A3.06,3.06,0,0,1,153.86,22.8ZM105.68,49.91,134.14,22.8A3.06,3.06,0,0,1,139.31,25h0a3,3,0,0,1-.77,2l-24.41,27.7a3.06,3.06,0,0,1-2.29,1h-4.06a3.06,3.06,0,0,1-3-3.06v-.6A3,3,0,0,1,105.68,49.91Zm-2.68,13,4.65,1.1a3.05,3.05,0,0,1,2.28,3.65L98.31,118.89a3,3,0,0,1-1.11,1.75l-6.52,5a3.06,3.06,0,0,1-4.86-1.82l-.14-.73a3,3,0,0,1,0-1.31L99.33,65.15A3.06,3.06,0,0,1,103,62.89Zm.91,123.91-20-35.28a3.07,3.07,0,0,1-.4-1.51v-5.93a3.06,3.06,0,0,1,1.24-2.46l7.11-5.26a3.08,3.08,0,0,1,2.58-.5l3.81,1a3.09,3.09,0,0,1,1.85,1.37L113,159.31a3.08,3.08,0,0,1,.44,1.34l1.3,15.71a3,3,0,0,1-.41,1.8l-5.1,8.68A3.06,3.06,0,0,1,103.91,186.8Zm55.29-35.09a3,3,0,0,1-2.41,1.18H131.21a3,3,0,0,1-2.41-1.18l-21.41-27.52a3.07,3.07,0,0,1-.58-2.5L118,68.06a3,3,0,0,1,.56-1.24l23-30a3,3,0,0,1,4.84,0l23,30a3,3,0,0,1,.56,1.24l11.17,53.63a3.07,3.07,0,0,1-.58,2.5Zm19.11,35.13-5.11-8.68a3.06,3.06,0,0,1-.41-1.8l1.31-15.71a3.08,3.08,0,0,1,.44-1.34l12.85-21.1a3.06,3.06,0,0,1,1.85-1.37l3.8-1a3.07,3.07,0,0,1,2.58.5l7.12,5.26a3.06,3.06,0,0,1,1.24,2.46V150a3.07,3.07,0,0,1-.4,1.51l-20,35.28A3.06,3.06,0,0,1,178.31,186.84Z" transform="translate(-15.23 -6.71)"/></g></svg>