<svg id="Layer_1" data-name="Layer 1" xmlns="http://www.w3.org/2000/svg" fill="white" viewBox="0 0 272.87 126.09"><path d="M190.18,128.6,165.91,99.79a13.71,13.71,0,0,0-10.49-4.88h-22A13.68,13.68,0,0,0,123,99.79L98.67,128.6a13.76,13.76,0,0,0-3.08,10.85l3.77,25.4a13.67,13.67,0,0,0,3.33,7.12c5.81,6.49,19.94,21.76,33.35,32.12a13.7,13.7,0,0,0,16.77,0c13.42-10.36,27.55-25.63,33.36-32.12a13.75,13.75,0,0,0,3.33-7.12l3.76-25.4A13.69,13.69,0,0,0,190.18,128.6ZM174,141.36l-2.45,21.31a8.56,8.56,0,0,1-2.4,5,185.89,185.89,0,0,1-19.49,17.51,8.69,8.69,0,0,1-10.39,0,185.61,185.61,0,0,1-19.48-17.51,8.57,8.57,0,0,1-2.41-5l-2.45-21.31a8.59,8.59,0,0,1,1.59-6l12.27-13.88a8.55,8.55,0,0,1,6.94-3.54h17.48a8.58,8.58,0,0,1,6.94,3.54l12.27,13.88A8.58,8.58,0,0,1,174,141.36Z" transform="translate(-7.14 -80.86)"/><path d="M249.61,80.86H220.08A4.16,4.16,0,0,0,215.92,85v32.26a4.15,4.15,0,0,0,1.24,3l25.71,25.35a4.16,4.16,0,0,0,2.92,1.2h30.06a4.16,4.16,0,0,0,4.16-4.16V108.26a4.16,4.16,0,0,0-1.4-3.11L252.37,81.91A4.13,4.13,0,0,0,249.61,80.86Zm11.24,47.64H249.74a4.15,4.15,0,0,1-3-1.29l-13-13.54a4.14,4.14,0,0,1-1.15-2.87v-9.86a4.16,4.16,0,0,1,4.15-4.16h7.88a4.15,4.15,0,0,1,2.85,1.14l16.18,15.27a4.16,4.16,0,0,1,1.31,3v8.13A4.16,4.16,0,0,1,260.85,128.5Z" transform="translate(-7.14 -80.86)"/><path d="M37.53,80.86H67.06A4.16,4.16,0,0,1,71.22,85v32.26a4.15,4.15,0,0,1-1.24,3L44.27,145.59a4.12,4.12,0,0,1-2.91,1.2H11.29a4.15,4.15,0,0,1-4.15-4.16V108.26a4.16,4.16,0,0,1,1.4-3.11L34.78,81.91A4.12,4.12,0,0,1,37.53,80.86ZM26.3,128.5H37.4a4.18,4.18,0,0,0,3-1.29l13-13.54a4.14,4.14,0,0,0,1.15-2.87v-9.86a4.16,4.16,0,0,0-4.16-4.16H42.48a4.15,4.15,0,0,0-2.86,1.14L23.44,113.19a4.15,4.15,0,0,0-1.3,3v8.13A4.16,4.16,0,0,0,26.3,128.5Z" transform="translate(-7.14 -80.86)"/></svg>