<?xml version="1.0" encoding="UTF-8" standalone="no"?>
<!DOCTYPE svg PUBLIC "-//W3C//DTD SVG 1.1//EN" "http://www.w3.org/Graphics/SVG/1.1/DTD/svg11.dtd">
<svg width="100%" height="100%" fill="white" viewBox="0 0 565 589" version="1.1" xmlns="http://www.w3.org/2000/svg" xmlns:xlink="http://www.w3.org/1999/xlink" xml:space="preserve" xmlns:serif="http://www.serif.com/" style="fill-rule:evenodd;clip-rule:evenodd;stroke-linejoin:round;stroke-miterlimit:2;">
    <g transform="matrix(1,0,0,1,-1067.88,-1505.52)">
        <g transform="matrix(5.50685,0,0,5.50685,-6084.24,-8108.79)">
            <path d="M1350,1745.88C1378.28,1745.88 1401.23,1769.85 1401.23,1799.36C1401.23,1828.87 1378.28,1852.83 1350,1852.83C1321.73,1852.83 1298.77,1828.87 1298.77,1799.36C1298.77,1769.85 1321.73,1745.88 1350,1745.88ZM1353.32,1850.03L1353.32,1839.25C1353.32,1839.25 1356.22,1833.17 1360.82,1832.68C1365.42,1832.18 1370.18,1833.17 1375.27,1830.21C1380.36,1827.26 1384.14,1823.32 1384.14,1823.32C1384.14,1823.32 1375.93,1822.17 1370.84,1824.3C1365.75,1826.44 1364.27,1829.56 1364.27,1829.56C1364.27,1829.56 1359.51,1828.9 1352.78,1833.83L1352.78,1817.08C1352.78,1817.08 1353.27,1813.3 1359.51,1812.97C1365.75,1812.64 1375.76,1812.97 1379.21,1810.84C1382.66,1808.7 1391.2,1801.15 1391.53,1797.7C1391.53,1797.7 1376.91,1798.53 1369.36,1809.69L1360.66,1809.85C1360.66,1809.85 1355.57,1809.69 1352.94,1812.32L1352.94,1799.36C1352.94,1799.36 1357.37,1793.6 1365.09,1793.6C1372.81,1793.6 1375.27,1794.26 1379.38,1787.69C1383.48,1781.12 1384.63,1775.87 1384.63,1775.87C1384.63,1775.87 1372.97,1779.81 1366.73,1790.48L1359.67,1791.48C1359.67,1791.48 1355.4,1792.81 1352.45,1796.09L1352.45,1780.63C1352.45,1780.63 1354.75,1778 1360,1776.85C1365.26,1775.7 1367.88,1767.33 1367.72,1759.28C1367.72,1759.28 1360.33,1761.25 1356.39,1774.22C1356.39,1774.22 1351.77,1776.43 1350,1778.89C1348.23,1776.43 1343.61,1774.22 1343.61,1774.22C1339.67,1761.25 1332.28,1759.28 1332.28,1759.28C1332.12,1767.33 1334.75,1775.7 1340,1776.85C1345.25,1778 1347.55,1780.63 1347.55,1780.63L1347.55,1796.09C1344.6,1792.81 1340.33,1791.48 1340.33,1791.48L1333.27,1790.48C1327.03,1779.81 1315.37,1775.87 1315.37,1775.87C1315.37,1775.87 1316.52,1781.12 1320.62,1787.69C1324.73,1794.26 1327.19,1793.6 1334.91,1793.6C1342.63,1793.6 1347.06,1799.36 1347.06,1799.36L1347.06,1812.32C1344.43,1809.69 1339.34,1809.85 1339.34,1809.85L1330.64,1809.69C1323.09,1798.53 1308.47,1797.7 1308.47,1797.7C1308.8,1801.15 1317.34,1808.7 1320.79,1810.84C1324.24,1812.97 1334.25,1812.64 1340.49,1812.97C1346.73,1813.3 1347.22,1817.08 1347.22,1817.08L1347.22,1833.83C1340.49,1828.9 1335.73,1829.56 1335.73,1829.56C1335.73,1829.56 1334.25,1826.44 1329.16,1824.3C1324.07,1822.17 1315.86,1823.32 1315.86,1823.32C1315.86,1823.32 1319.64,1827.26 1324.73,1830.21C1329.82,1833.17 1334.58,1832.18 1339.18,1832.68C1343.78,1833.17 1346.68,1839.25 1346.68,1839.25L1346.68,1850.03C1321.37,1848.24 1301.35,1826.22 1301.35,1799.36C1301.35,1771.33 1323.15,1748.57 1350,1748.57C1376.85,1748.57 1398.65,1771.33 1398.65,1799.36C1398.65,1826.22 1378.63,1848.24 1353.32,1850.03Z"/>
        </g>
    </g>
</svg>
